<svg xmlns="http://www.w3.org/2000/svg" viewBox="0 0 1600 900"><defs><linearGradient id="station-w" x1="0" y1="0" x2="0" y2="1"><stop offset="0" stop-color="#39465b"/><stop offset="1" stop-color="#4c5a70"/></linearGradient><linearGradient id="station-gl" x1="0" y1="0" x2="0" y2="1"><stop offset="0" stop-color="#b7d3ea"/><stop offset="1" stop-color="#7f9fb9"/></linearGradient></defs><rect x="0" y="0" width="1600" height="900" fill="url(#station-w)"/><rect x="0" y="150" width="1600" height="520" fill="#8fb3cf"/><rect x="0" y="150" width="1600" height="520" fill="url(#station-gl)"/><path d="M0 520V420h120v-60h160v160z M1200 520V380h180v-40h220v180z" fill="#6d8aa3"/><rect x="0" y="520" width="1600" height="150" fill="#5c6873"/><rect x="1040" y="560" width="220" height="60" rx="16" fill="#f2c230"/><rect x="1080" y="530" width="130" height="40" rx="10" fill="#f2c230"/><rect x="1095" y="537" width="100" height="28" fill="#9fc3dd"/><circle cx="1090" cy="620" r="20" fill="#2b2d33"/><circle cx="1210" cy="620" r="20" fill="#2b2d33"/><rect x="-4" y="150" width="8" height="520" fill="#2f3a4a"/><rect x="196" y="150" width="8" height="520" fill="#2f3a4a"/><rect x="396" y="150" width="8" height="520" fill="#2f3a4a"/><rect x="596" y="150" width="8" height="520" fill="#2f3a4a"/><rect x="796" y="150" width="8" height="520" fill="#2f3a4a"/><rect x="996" y="150" width="8" height="520" fill="#2f3a4a"/><rect x="1196" y="150" width="8" height="520" fill="#2f3a4a"/><rect x="1396" y="150" width="8" height="520" fill="#2f3a4a"/><rect x="1596" y="150" width="8" height="520" fill="#2f3a4a"/><rect x="0" y="146" width="1600" height="10" fill="#2f3a4a"/><rect x="0" y="400" width="1600" height="6" fill="#2f3a4a"/><rect x="420" y="40" width="760" height="170" rx="6" fill="#1b1f27"/><rect x="440" y="56" width="38" height="28" rx="3" fill="#f2a93b"/><rect x="486" y="56" width="38" height="28" rx="3" fill="#f2a93b"/><rect x="532" y="56" width="38" height="28" rx="3" fill="#f2a93b"/><rect x="578" y="56" width="38" height="28" rx="3" fill="#2f3440"/><rect x="624" y="56" width="38" height="28" rx="3" fill="#f2a93b"/><rect x="670" y="56" width="38" height="28" rx="3" fill="#f2a93b"/><rect x="716" y="56" width="38" height="28" rx="3" fill="#f2a93b"/><rect x="762" y="56" width="38" height="28" rx="3" fill="#2f3440"/><rect x="808" y="56" width="38" height="28" rx="3" fill="#f2a93b"/><rect x="854" y="56" width="38" height="28" rx="3" fill="#2f3440"/><rect x="900" y="56" width="38" height="28" rx="3" fill="#2f3440"/><rect x="946" y="56" width="38" height="28" rx="3" fill="#f2a93b"/><rect x="992" y="56" width="38" height="28" rx="3" fill="#f2a93b"/><rect x="1038" y="56" width="38" height="28" rx="3" fill="#f2a93b"/><rect x="1084" y="56" width="38" height="28" rx="3" fill="#f2a93b"/><rect x="1130" y="56" width="38" height="28" rx="3" fill="#2f3440"/><rect x="440" y="94" width="38" height="28" rx="3" fill="#f2a93b"/><rect x="486" y="94" width="38" height="28" rx="3" fill="#f2a93b"/><rect x="532" y="94" width="38" height="28" rx="3" fill="#2f3440"/><rect x="578" y="94" width="38" height="28" rx="3" fill="#f2a93b"/><rect x="624" y="94" width="38" height="28" rx="3" fill="#f2a93b"/><rect x="670" y="94" width="38" height="28" rx="3" fill="#f2a93b"/><rect x="716" y="94" width="38" height="28" rx="3" fill="#f2a93b"/><rect x="762" y="94" width="38" height="28" rx="3" fill="#2f3440"/><rect x="808" y="94" width="38" height="28" rx="3" fill="#f2a93b"/><rect x="854" y="94" width="38" height="28" rx="3" fill="#f2a93b"/><rect x="900" y="94" width="38" height="28" rx="3" fill="#2f3440"/><rect x="946" y="94" width="38" height="28" rx="3" fill="#f2a93b"/><rect x="992" y="94" width="38" height="28" rx="3" fill="#2f3440"/><rect x="1038" y="94" width="38" height="28" rx="3" fill="#2f3440"/><rect x="1084" y="94" width="38" height="28" rx="3" fill="#f2a93b"/><rect x="1130" y="94" width="38" height="28" rx="3" fill="#f2a93b"/><rect x="440" y="132" width="38" height="28" rx="3" fill="#2f3440"/><rect x="486" y="132" width="38" height="28" rx="3" fill="#2f3440"/><rect x="532" y="132" width="38" height="28" rx="3" fill="#f2a93b"/><rect x="578" y="132" width="38" height="28" rx="3" fill="#2f3440"/><rect x="624" y="132" width="38" height="28" rx="3" fill="#2f3440"/><rect x="670" y="132" width="38" height="28" rx="3" fill="#2f3440"/><rect x="716" y="132" width="38" height="28" rx="3" fill="#f2a93b"/><rect x="762" y="132" width="38" height="28" rx="3" fill="#2f3440"/><rect x="808" y="132" width="38" height="28" rx="3" fill="#2f3440"/><rect x="854" y="132" width="38" height="28" rx="3" fill="#f2a93b"/><rect x="900" y="132" width="38" height="28" rx="3" fill="#2f3440"/><rect x="946" y="132" width="38" height="28" rx="3" fill="#f2a93b"/><rect x="992" y="132" width="38" height="28" rx="3" fill="#f2a93b"/><rect x="1038" y="132" width="38" height="28" rx="3" fill="#f2a93b"/><rect x="1084" y="132" width="38" height="28" rx="3" fill="#f2a93b"/><rect x="1130" y="132" width="38" height="28" rx="3" fill="#f2a93b"/><rect x="440" y="170" width="38" height="28" rx="3" fill="#2f3440"/><rect x="486" y="170" width="38" height="28" rx="3" fill="#2f3440"/><rect x="532" y="170" width="38" height="28" rx="3" fill="#2f3440"/><rect x="578" y="170" width="38" height="28" rx="3" fill="#2f3440"/><rect x="624" y="170" width="38" height="28" rx="3" fill="#2f3440"/><rect x="670" y="170" width="38" height="28" rx="3" fill="#2f3440"/><rect x="716" y="170" width="38" height="28" rx="3" fill="#f2a93b"/><rect x="762" y="170" width="38" height="28" rx="3" fill="#f2a93b"/><rect x="808" y="170" width="38" height="28" rx="3" fill="#2f3440"/><rect x="854" y="170" width="38" height="28" rx="3" fill="#f2a93b"/><rect x="900" y="170" width="38" height="28" rx="3" fill="#2f3440"/><rect x="946" y="170" width="38" height="28" rx="3" fill="#f2a93b"/><rect x="992" y="170" width="38" height="28" rx="3" fill="#f2a93b"/><rect x="1038" y="170" width="38" height="28" rx="3" fill="#2f3440"/><rect x="1084" y="170" width="38" height="28" rx="3" fill="#2f3440"/><rect x="1130" y="170" width="38" height="28" rx="3" fill="#2f3440"/><rect x="780" y="210" width="40" height="40" fill="#1b1f27"/><rect x="180" y="150" width="80" height="540" fill="#d9d4c8"/><rect x="168" y="150" width="104" height="26" fill="#c3bdb0"/><rect x="168" y="664" width="104" height="26" fill="#c3bdb0"/><rect x="1340" y="150" width="80" height="540" fill="#d9d4c8"/><rect x="1328" y="150" width="104" height="26" fill="#c3bdb0"/><rect x="1328" y="664" width="104" height="26" fill="#c3bdb0"/><rect x="0" y="690" width="1600" height="210" fill="#b5aea2"/><rect x="0" y="700" width="1600" height="3" fill="#a29b8f"/><rect x="0" y="726" width="1600" height="3" fill="#a29b8f"/><rect x="0" y="752" width="1600" height="3" fill="#a29b8f"/><rect x="0" y="778" width="1600" height="3" fill="#a29b8f"/><rect x="0" y="804" width="1600" height="3" fill="#a29b8f"/><rect x="0" y="830" width="1600" height="3" fill="#a29b8f"/><rect x="0" y="856" width="1600" height="3" fill="#a29b8f"/><rect x="0" y="882" width="1600" height="3" fill="#a29b8f"/><rect x="1180" y="620" width="50" height="80" rx="6" fill="#3b6f9f"/><rect x="1200" y="590" width="10" height="30" fill="#2b2d33"/><circle cx="1190" cy="702" r="6" fill="#2b2d33"/><circle cx="1220" cy="702" r="6" fill="#2b2d33"/><rect x="1240" y="620" width="50" height="80" rx="6" fill="#b04a3a"/><rect x="1260" y="590" width="10" height="30" fill="#2b2d33"/><circle cx="1250" cy="702" r="6" fill="#2b2d33"/><circle cx="1280" cy="702" r="6" fill="#2b2d33"/></svg>
